<mxfile host="app.diagrams.net" modified="2023-02-08T16:20:18.438Z" agent="5.0 (X11; Linux x86_64) AppleWebKit/537.36 (KHTML, like Gecko) Chrome/109.0.0.0 Safari/537.36" etag="Rx4_Lzg39BMNHnS4BoKU" version="20.8.18" type="github">
  <diagram id="mwToAvXhce5DI-8wnwoA" name="Page-1">
    <mxGraphModel dx="992" dy="611" grid="1" gridSize="10" guides="1" tooltips="1" connect="1" arrows="1" fold="1" page="1" pageScale="1" pageWidth="850" pageHeight="1100" math="0" shadow="0">
      <root>
        <mxCell id="0" />
        <mxCell id="1" parent="0" />
        <mxCell id="2sTp-znWYyKhSrJxXBus-12" value="" style="rounded=1;whiteSpace=wrap;html=1;dashed=1;strokeColor=#007FFF;fillColor=none;" parent="1" vertex="1">
          <mxGeometry x="27" y="80" width="173" height="320" as="geometry" />
        </mxCell>
        <mxCell id="2sTp-znWYyKhSrJxXBus-10" value="" style="rounded=1;whiteSpace=wrap;html=1;dashed=1;strokeColor=#F0A30A;fillColor=none;fontColor=#ffffff;" parent="1" vertex="1">
          <mxGeometry x="125" y="513" width="595" height="127" as="geometry" />
        </mxCell>
        <mxCell id="2sTp-znWYyKhSrJxXBus-6" value="" style="rounded=1;whiteSpace=wrap;html=1;dashed=1;fillColor=none;strokeColor=#F0A30A;fontColor=#000000;" parent="1" vertex="1">
          <mxGeometry x="325" y="80" width="195" height="320" as="geometry" />
        </mxCell>
        <mxCell id="2sTp-znWYyKhSrJxXBus-1" value="Kafka Broker 1" style="rounded=0;whiteSpace=wrap;html=1;fillColor=#f0a30a;strokeColor=#BD7000;fontColor=#000000;" parent="1" vertex="1">
          <mxGeometry x="360" y="120" width="120" height="60" as="geometry" />
        </mxCell>
        <mxCell id="2sTp-znWYyKhSrJxXBus-4" value="Kafka Broker 2" style="rounded=0;whiteSpace=wrap;html=1;fillColor=#f0a30a;strokeColor=#BD7000;fontColor=#000000;" parent="1" vertex="1">
          <mxGeometry x="360" y="210" width="120" height="60" as="geometry" />
        </mxCell>
        <mxCell id="2sTp-znWYyKhSrJxXBus-5" value="Kafka Broker 3" style="rounded=0;whiteSpace=wrap;html=1;fillColor=#f0a30a;strokeColor=#D79B00;fontColor=#000000;" parent="1" vertex="1">
          <mxGeometry x="360" y="300" width="120" height="60" as="geometry" />
        </mxCell>
        <mxCell id="2sTp-znWYyKhSrJxXBus-7" value="Zookeeper 1" style="rounded=0;whiteSpace=wrap;html=1;fillColor=#fff2cc;strokeColor=#d6b656;" parent="1" vertex="1">
          <mxGeometry x="155" y="553" width="120" height="60" as="geometry" />
        </mxCell>
        <mxCell id="2sTp-znWYyKhSrJxXBus-8" value="Zookeeper 2" style="rounded=0;whiteSpace=wrap;html=1;fillColor=#fff2cc;strokeColor=#d6b656;" parent="1" vertex="1">
          <mxGeometry x="355" y="553" width="120" height="60" as="geometry" />
        </mxCell>
        <mxCell id="2sTp-znWYyKhSrJxXBus-9" value="Zookeeper 3" style="rounded=0;whiteSpace=wrap;html=1;fillColor=#fff2cc;strokeColor=#d6b656;" parent="1" vertex="1">
          <mxGeometry x="553" y="553" width="120" height="60" as="geometry" />
        </mxCell>
        <mxCell id="2sTp-znWYyKhSrJxXBus-11" value="" style="shape=flexArrow;endArrow=classic;startArrow=classic;html=1;rounded=0;entryX=0.5;entryY=1;entryDx=0;entryDy=0;fillColor=#007FFF;exitX=0.5;exitY=0;exitDx=0;exitDy=0;" parent="1" source="2sTp-znWYyKhSrJxXBus-10" target="2sTp-znWYyKhSrJxXBus-6" edge="1">
          <mxGeometry width="100" height="100" relative="1" as="geometry">
            <mxPoint x="440" y="510" as="sourcePoint" />
            <mxPoint x="260" y="320" as="targetPoint" />
          </mxGeometry>
        </mxCell>
        <mxCell id="2sTp-znWYyKhSrJxXBus-13" value="Product Producer" style="rounded=0;whiteSpace=wrap;html=1;dashed=1;strokeColor=#10739e;fillColor=#b1ddf0;" parent="1" vertex="1">
          <mxGeometry x="52" y="120" width="120" height="60" as="geometry" />
        </mxCell>
        <mxCell id="2sTp-znWYyKhSrJxXBus-16" value="Comment Producer" style="rounded=0;whiteSpace=wrap;html=1;dashed=1;strokeColor=#10739e;fillColor=#b1ddf0;" parent="1" vertex="1">
          <mxGeometry x="52" y="210" width="120" height="60" as="geometry" />
        </mxCell>
        <mxCell id="2sTp-znWYyKhSrJxXBus-17" value="ShopInfo Producer" style="rounded=0;whiteSpace=wrap;html=1;dashed=1;strokeColor=#10739e;fillColor=#b1ddf0;" parent="1" vertex="1">
          <mxGeometry x="52" y="300" width="120" height="60" as="geometry" />
        </mxCell>
        <mxCell id="2sTp-znWYyKhSrJxXBus-19" value="" style="shape=flexArrow;endArrow=classic;startArrow=none;html=1;rounded=0;entryX=0;entryY=0.5;entryDx=0;entryDy=0;fillColor=#007FFF;exitX=1;exitY=0.5;exitDx=0;exitDy=0;startFill=0;" parent="1" source="2sTp-znWYyKhSrJxXBus-12" target="2sTp-znWYyKhSrJxXBus-6" edge="1">
          <mxGeometry width="100" height="100" relative="1" as="geometry">
            <mxPoint x="250" y="240" as="sourcePoint" />
            <mxPoint x="230" y="220" as="targetPoint" />
          </mxGeometry>
        </mxCell>
        <mxCell id="2sTp-znWYyKhSrJxXBus-24" value="" style="rounded=1;whiteSpace=wrap;html=1;dashed=1;strokeColor=#007FFF;fillColor=none;" parent="1" vertex="1">
          <mxGeometry x="648" y="80" width="173" height="320" as="geometry" />
        </mxCell>
        <mxCell id="2sTp-znWYyKhSrJxXBus-25" value="Product Consumer" style="rounded=0;whiteSpace=wrap;html=1;dashed=1;strokeColor=#10739e;fillColor=#b1ddf0;" parent="1" vertex="1">
          <mxGeometry x="673" y="120" width="120" height="60" as="geometry" />
        </mxCell>
        <mxCell id="2sTp-znWYyKhSrJxXBus-26" value="Comment Consumer" style="rounded=0;whiteSpace=wrap;html=1;dashed=1;strokeColor=#10739e;fillColor=#b1ddf0;" parent="1" vertex="1">
          <mxGeometry x="673" y="210" width="120" height="60" as="geometry" />
        </mxCell>
        <mxCell id="2sTp-znWYyKhSrJxXBus-27" value="ShopInfo Consumer" style="rounded=0;whiteSpace=wrap;html=1;dashed=1;strokeColor=#10739e;fillColor=#b1ddf0;" parent="1" vertex="1">
          <mxGeometry x="673" y="300" width="120" height="60" as="geometry" />
        </mxCell>
        <mxCell id="2sTp-znWYyKhSrJxXBus-28" value="" style="shape=flexArrow;endArrow=none;startArrow=classic;html=1;rounded=0;entryX=0;entryY=0.5;entryDx=0;entryDy=0;fillColor=#007FFF;exitX=1;exitY=0.5;exitDx=0;exitDy=0;endFill=0;" parent="1" edge="1">
          <mxGeometry width="100" height="100" relative="1" as="geometry">
            <mxPoint x="520" y="230" as="sourcePoint" />
            <mxPoint x="645" y="230" as="targetPoint" />
          </mxGeometry>
        </mxCell>
        <mxCell id="2sTp-znWYyKhSrJxXBus-29" value="&lt;font color=&quot;#0000cc&quot;&gt;Kafka Producer&lt;/font&gt;" style="text;html=1;strokeColor=none;fillColor=none;align=center;verticalAlign=middle;whiteSpace=wrap;rounded=0;dashed=1;" parent="1" vertex="1">
          <mxGeometry x="52" y="40" width="126" height="30" as="geometry" />
        </mxCell>
        <mxCell id="2sTp-znWYyKhSrJxXBus-31" value="&lt;font color=&quot;#0000cc&quot;&gt;Kafka Cluster&lt;/font&gt;" style="text;html=1;strokeColor=none;fillColor=none;align=center;verticalAlign=middle;whiteSpace=wrap;rounded=0;dashed=1;" parent="1" vertex="1">
          <mxGeometry x="357" y="40" width="126" height="30" as="geometry" />
        </mxCell>
        <mxCell id="2sTp-znWYyKhSrJxXBus-32" value="&lt;font color=&quot;#0000cc&quot;&gt;Kafka Consumer&lt;/font&gt;" style="text;html=1;strokeColor=none;fillColor=none;align=center;verticalAlign=middle;whiteSpace=wrap;rounded=0;dashed=1;" parent="1" vertex="1">
          <mxGeometry x="670" y="40" width="126" height="30" as="geometry" />
        </mxCell>
        <mxCell id="5GS1C7OomjHBA69fNeBO-1" value="&lt;font style=&quot;font-size: 16px;&quot;&gt;Push message&lt;/font&gt;" style="text;html=1;strokeColor=none;fillColor=none;align=center;verticalAlign=middle;whiteSpace=wrap;rounded=0;" vertex="1" parent="1">
          <mxGeometry x="210" y="180" width="80" height="50" as="geometry" />
        </mxCell>
        <mxCell id="5GS1C7OomjHBA69fNeBO-2" value="&lt;font style=&quot;font-size: 16px;&quot;&gt;Pull message&lt;/font&gt;" style="text;html=1;strokeColor=none;fillColor=none;align=center;verticalAlign=middle;whiteSpace=wrap;rounded=0;" vertex="1" parent="1">
          <mxGeometry x="553" y="170" width="80" height="50" as="geometry" />
        </mxCell>
      </root>
    </mxGraphModel>
  </diagram>
</mxfile>
